# xmcd
#
# Track frame offsets: 
#        150
#        23136
#        35758
#        46827
#        58975
#        71772
#        89298
#        101159
#        110266
#        122841
#        135346
#        148294
#        160555
#        173541
#        188931
#        201669
#        212674
#        228067
#        243129
#        258506
#        275473
#        291847
#
# Disc length: 4112 seconds
#
# Revision: 0
# Processed by: cddbd v1.5.2PL0 Copyright (c) Steve Scherf et al.
# Submitted via: ExactAudioCopy v1.0b3
#
DISCID=45100e16
DTITLE=Ray Charles - 17 Original Albums [CD3]
DYEAR=2015
DGENRE=Blues
TTITLE0=What'd I Say Parts 1 and 2
TTITLE1=Jumpin' In The Mornin'
TTITLE2=You Be My Baby
TTITLE3=Tell Me How Do You Feel
TTITLE4=What Kind Of Man Are You
TTITLE5=Rockhouse Parts 1 and 2
TTITLE6=Roll With My Baby
TTITLE7=Tell All The World About You
TTITLE8=My Bonnie
TTITLE9=That's Enough
TTITLE10=Let The Good Times Roll
TTITLE11=It Had To Be You
TTITLE12=Alexander's Ragtime Band
TTITLE13=Two Years Of Torture
TTITLE14=When Your Lover Has Gone
TTITLE15=Deed I Do
TTITLE16=Just For A Thrill
TTITLE17=You Won't Let Me Go
TTITLE18=Tell Me You'll Wait For Me
TTITLE19=Don't Let The Sun Catch You Cryin'
TTITLE20=Am I Blue
TTITLE21=Come Rain Or Come Shine
EXTD=
EXTT0=
EXTT1=
EXTT2=
EXTT3=
EXTT4=
EXTT5=
EXTT6=
EXTT7=
EXTT8=
EXTT9=
EXTT10=
EXTT11=
EXTT12=
EXTT13=
EXTT14=
EXTT15=
EXTT16=
EXTT17=
EXTT18=
EXTT19=
EXTT20=
EXTT21=
PLAYORDER=
